<svg xmlns="http://www.w3.org/2000/svg" viewBox="0 0 48 48"><defs><style>.a,.b{fill:#1b344b;}.a{fill-rule:evenodd;}</style></defs><path class="a" d="M5,13.25l7.84-9L27.19,16.83l-7.84,9ZM10.62,2.31A3,3,0,0,1,14.85,2L29.17,14.57a3,3,0,0,1,.28,4.23l-7.85,9a3,3,0,0,1-4.23.29L3.05,15.51a3,3,0,0,1-.28-4.24Z"/><path class="a" d="M19.39,25.87a1.51,1.51,0,0,0,.9,1.93c.39.14,1,.32,1.61.51l.35.1c.79.24,1.69.52,2.58.84a20.82,20.82,0,0,1,2.48,1,5.24,5.24,0,0,1,1.4.95,29.09,29.09,0,0,0,5.45,7.26,22,22,0,0,0,4.67,3.16l.2.11a11.23,11.23,0,0,0,3.76,1.5A4.22,4.22,0,0,0,44.93,43a5.12,5.12,0,0,0,1.87-1.41,4,4,0,0,0,.88-4,12.42,12.42,0,0,0-2-3.41,21,21,0,0,0-4-4.3,36.84,36.84,0,0,0-7.88-4.56,3.73,3.73,0,0,1-1.21-1.12A13.83,13.83,0,0,1,31.27,22a34.15,34.15,0,0,1-1.8-4.36,1.5,1.5,0,0,0-2.84,1,39.63,39.63,0,0,0,2,4.74A16.43,16.43,0,0,0,30.24,26a6.62,6.62,0,0,0,2.3,2h0a34.27,34.27,0,0,1,7.27,4.17,17.9,17.9,0,0,1,3.45,3.74,9.8,9.8,0,0,1,1.53,2.52,1.06,1.06,0,0,1,.06.58,1.27,1.27,0,0,1-.33.59,2.21,2.21,0,0,1-.77.61,1.17,1.17,0,0,1-.61.07,8.81,8.81,0,0,1-2.69-1.15l-.14-.08a19.08,19.08,0,0,1-4.14-2.77,26.26,26.26,0,0,1-4.95-6.68,1.77,1.77,0,0,0-.17-.24,7.87,7.87,0,0,0-2.38-1.74,21.76,21.76,0,0,0-2.85-1.21c-1-.34-1.92-.64-2.72-.88l-.37-.11c-.65-.19-1.13-.34-1.43-.45A1.51,1.51,0,0,0,19.39,25.87Z"/><path class="b" d="M39.57,37.78a1.52,1.52,0,1,0-.15-2.14A1.52,1.52,0,0,0,39.57,37.78Z"/><path class="a" d="M6.85,3.72a.49.49,0,0,1,.7,0l.78.68a1.5,1.5,0,0,0,2-2.26l-.78-.68a3.5,3.5,0,0,0-4.94.33L1,5.87a3.5,3.5,0,0,0,.33,4.94l.78.68a1.5,1.5,0,0,0,2-2.26l-.78-.68a.49.49,0,0,1,0-.7Z"/><path class="b" d="M4,47.45a1,1,0,0,0,1-1V44.57a.54.54,0,0,1,.07-.31l2-3.59a1,1,0,0,0-.87-1.49H6.08a1,1,0,0,0-.91.59c-.45,1-1,2.12-1.25,2.87-.32-.8-.78-1.86-1.23-2.87a1,1,0,0,0-.91-.59h-.4a1,1,0,0,0-.87,1.48l2,3.61a.48.48,0,0,1,.08.31v1.87a1,1,0,0,0,1,1Z"/><path class="b" d="M12.23,45.84l.28.91a1,1,0,0,0,1,.7h.41a1,1,0,0,0,.95-1.31l-2.05-6.27a1,1,0,0,0-.95-.69H10.15a1,1,0,0,0-1,.7l-2,6.27a1,1,0,0,0,1,1.3h.24a1,1,0,0,0,1-.72l.27-.89ZM10,44c.33-1.18.65-2.35.84-3.23,0,0,0,0,0,0h0s0,0,0,0c.18.8.51,1.94.89,3.23Z"/><path class="b" d="M23.07,46.45a1,1,0,0,0,1,1h.33a1,1,0,0,0,1-1V40.18a1,1,0,0,0-1-1H22.79a1,1,0,0,0-1,.74c-.42,1.63-.86,3.42-1.05,4.57l0,0h0l0,0c-.16-1.05-.53-3-.88-4.54a1,1,0,0,0-1-.77H17.17a1,1,0,0,0-1,1v6.27a1,1,0,0,0,1,1h.16a1,1,0,0,0,1-1V44.82c0-1.39,0-3-.11-4a0,0,0,0,1,0,0h0a0,0,0,0,1,0,0c.28,1.62.74,3.72,1.17,5.79a1,1,0,0,0,1,.81h.34a1,1,0,0,0,1-.76c.53-2.15,1-4.26,1.31-5.85,0,0,0,0,0,0h0a0,0,0,0,1,0,0c0,1-.08,2.63-.08,3.9Z"/><path class="b" d="M27.11,46.45a1,1,0,0,0,1,1h4.28a.9.9,0,0,0,.89-.77h0a.9.9,0,0,0-.89-1H29.54V40.18a1,1,0,0,0-1-1h-.43a1,1,0,0,0-1,1Z"/></svg>